<?xml version="1.0" standalone="no"?><!DOCTYPE svg PUBLIC "-//W3C//DTD SVG 1.1//EN" "http://www.w3.org/Graphics/SVG/1.1/DTD/svg11.dtd"><svg t="1584080016140" class="icon" viewBox="0 0 1024 1024" version="1.1" xmlns="http://www.w3.org/2000/svg" p-id="3221" xmlns:xlink="http://www.w3.org/1999/xlink" width="200" height="200"><defs><style type="text/css"></style></defs><path d="M645.978 473.598c2.096 10.217 0.699 19.123-4.541 28.031-4.977 8.47-13.797 11.526-22.18 13.011-11.789 2.096-24.101 1.485-37.199 2.096 0-7.772 0-14.409 0-21.044 0-13.884 0-27.769 0-41.74 0-3.231 0.087-6.287 4.628-6.199 15.194 0.087 30.476 0.262 44.534 6.724 8.034 3.755 12.836 9.955 14.757 19.123v0zM365.062 562.667c17.813 6.287 35.278 6.113 53.616 0.175-9.082-28.555-17.813-55.798-27.070-84.964-9.169 29.253-17.639 56.41-26.546 84.789v0zM959.376 309.694c-6.287 6.549-394.958 429.101-396.966 429.188-149.758-0.087-340.119-0.087-489.79 0-5.327 0-7.422-1.222-7.422-7.073 0.175-138.405 0.087-276.811 0.175-415.217 0-2.096 0.175-4.105 0.349-6.898h893.654zM718.279 507.916c3.93-17.202 3.667-34.754 0.436-52.219-2.882-16.067-10.391-29.777-22.442-40.692-20.346-18.425-44.011-29.952-71.953-29.952-36.239 0-111.162-0.262-113.519 0v202.063c-3.143 0.087-3.755 0.175-4.453 0.349-2.183-6.898-4.017-13.971-6.549-20.783-7.161-18.687-14.845-37.199-21.918-55.886-8.732-23.053-17.115-46.281-25.585-69.508-5.851-16.067-11.351-32.222-17.465-48.114-1.047-2.707-2.27-8.121-6.724-8.121h-69.333c-3.667 0.436-4.191 2.882-4.716 4.278-4.453 11.090-8.645 22.354-12.749 33.619-4.803 13.273-9.344 26.634-14.321 39.819-9.082 24.101-18.512 48.114-27.769 72.215-2.532 6.637-5.327 13.186-8.47 20.957-1.485-2.357-2.357-3.143-2.532-4.105-3.056-14.67-13.186-24.538-24.014-33.357-19.386-15.892-43.748-21.307-66.627-29.865-12.487-4.716-25.149-9.868-36.239-17.028-11.614-7.509-8.034-20.172 3.056-24.8 16.766-6.986 34.055-4.628 50.734-1.746 14.321 2.532 28.031 8.994 42.438 13.884 8.558-14.582 17.552-29.777 26.284-45.058 5.065-8.819 4.453-8.295-4.628-12.050s-7.684-3.406-14.932-5.851c-20.783-6.898-34.492-10.304-52.567-12.574-19.036-2.445-38.16-1.834-57.458 2.096-19.123 3.755-35.104 12.225-49.774 23.577-12.836 9.955-20.433 23.577-24.363 39.819-4.89 20.172-2.795 39.12 7.509 56.41 13.011 21.83 35.017 32.397 57.719 41.129 13.622 5.239 27.856 8.819 41.652 13.535 5.588 1.921 11.003 4.628 16.067 7.509 7.684 4.366 9.693 13.099 6.986 21.044-3.93 11.789-14.409 12.749-23.577 14.321-15.456 2.532-30.912-0.262-46.019-3.93-5.065-1.222-9.693-4.105-14.582-6.199-7.073-3.143-14.146-6.287-21.482-9.518-7.947 16.242-15.107 32.484-23.751 47.765-3.93 6.986-0.699 8.208 4.278 10.129 11.876 4.541 23.403 10.129 35.54 13.36 16.155 4.278 32.571 8.034 49.163 9.43 13.099 1.135 26.721-0.611 39.819-2.969 10.129-1.834 19.822-6.287 29.34-10.304 6.811-2.882 13.011-7.073 20.084-11.003-2.183 6.549-4.105 12.313-6.374 18.425h76.756c2.357 0 5.501-3.493 6.549-6.199 3.93-10.391 7.073-21.044 10.74-32.397 30.65 9.605 61.3 9.344 91.862 0.524 3.58 11.090 7.248 21.307 9.955 31.873 1.31 5.152 3.318 6.199 8.645 6.199h119.631c5.676 0 8.208-6.113 8.208-6.113v-75.446h26.895c27.157 0 52.219-6.462 74.66-21.83 16.678-11.351 27.419-27.332 31.873-46.718v0z" p-id="3222" fill="#1296db"></path></svg>